<svg xmlns="http://www.w3.org/2000/svg" viewBox="0 0 24 24" id="dhl-express">
  <path fill="#F44336" d="M16.255 12.328 15.124 14h-2.982l1.131-1.672zM16.511 11.949H9.216L11.211 9h2.982l-1.144 1.691h1.331L15.524 9h2.982l-1.995 2.949z"></path>
  <path fill="#D43A2F" d="M14.193 9h-2.982l-1.995 2.949h3.65l.85-1.258h-.667L14.193 9z"></path>
  <path fill="#F44336" d="M11.942 12.327 10.811 14H7.828l1.131-1.672 2.983-.001z"></path>
  <path fill="#D43A2F" d="M10.428 12.328H8.959L7.828 14h1.47l1.13-1.672zM14.742 12.328h-1.469L12.142 14h1.47l1.13-1.672z"></path>
  <path fill="#F44336" d="M1.458 9 .42 10.535h5.658c.286 0 .282.118.142.324-.142.209-.38.573-.523.785-.073.108-.206.304.234.304h2.314l.686-1.014C9.353 10.307 8.966 9 7.446 9H1.458z"></path>
  <path fill="#F44336" d="m0 14 2.085-3.083h2.588c.286 0 .282.118.142.324l-.528.782c-.073.108-.206.305.234.305h3.466C7.699 12.757 6.764 14 5.085 14H0z"></path>
  <path fill="#D43A2F" d="M6.795 9H1.458L.42 10.535h5.337L6.795 9zm-2.122 1.917H2.085L0 14h3.415l1.13-1.672h-.024c-.44 0-.307-.197-.234-.305l.528-.782c.14-.206.144-.324-.142-.324z"></path>
  <path fill="#F44336" d="m22.635 9-1.995 2.949h-3.159L19.476 9h3.159zM17.225 12.328l-.323.48c-.375.551-.043 1.193 1.179 1.193h4.789L24 12.328h-6.775z"></path>
  <path fill="#D43A2F" d="M20.974 9h-1.498l-1.995 2.949h1.5L20.974 9zM18.725 12.328h-1.5l-.323.48c-.322.474-.122 1.015.717 1.157l1.106-1.637z"></path>
</svg>
